<svg width="22" height="22" viewBox="0 0 22 22" fill="none" xmlns="http://www.w3.org/2000/svg">
<g clip-path="url(#clip0_1_16373)">
<path d="M11.2219 0.916992C5.65994 0.916992 1.13898 5.42434 1.13898 11C1.13898 16.5623 5.64627 21.083 11.2219 21.083C16.784 21.083 21.3047 16.5757 21.3047 11C21.3047 5.42434 16.784 0.916992 11.2219 0.916992ZM11.2219 14.3428C9.37244 14.3428 7.86545 12.8358 7.86545 10.9863C7.86545 9.13689 9.37244 7.62988 11.2219 7.62988C13.0713 7.62988 14.5783 9.13689 14.5783 10.9863C14.5783 12.8497 13.0715 14.3428 11.2219 14.3428Z" fill="#EDB66B"/>
<path d="M6.67092 14.2876C6.42176 14.2876 6.21198 14.1957 6.05445 14.0385C5.68714 13.658 5.70026 13.0024 5.72652 12.2287C5.73965 11.5597 5.7659 10.7203 5.4511 10.3926C5.38546 10.3139 5.25446 10.2222 4.95279 10.2091H4.90027C4.57235 10.2091 4.33632 10.2748 4.20504 10.4189C3.94275 10.6943 3.98213 11.3108 4.00839 11.8091C4.04777 12.3337 4.07403 12.7929 3.77236 13.0552C3.54945 13.265 3.24778 13.37 2.91986 13.37C2.27713 13.37 1.51652 12.9242 1.26736 12.3996C1.24138 12.3468 1.22825 12.3074 1.22825 12.2549L1.21513 12.1237C1.17574 11.6253 1.12323 11.0745 1.12323 10.8385C1.12323 5.27757 5.64775 0.766113 11.1952 0.766113C16.7426 0.766113 21.2674 5.29069 21.2674 10.8385C21.2674 11.0614 21.2542 11.2974 21.2411 11.5206C21.1886 12.2155 20.6246 12.7533 19.9428 12.7533C19.7987 12.7533 19.6411 12.727 19.497 12.6745C18.8411 12.4253 18.2903 11.9533 17.7657 11.494C17.0051 10.8251 16.2836 10.2088 15.2608 10.1826C14.618 10.1695 14.0409 9.81528 13.7395 9.26444C13.0052 7.90047 12.9133 7.84796 11.0642 7.84796C7.65443 7.84796 7.65443 9.76276 7.65443 10.3924C7.65443 10.7466 7.68068 11.1267 7.69381 11.494C7.75945 12.5695 7.81196 13.5136 7.35275 13.9991C7.20862 14.1829 6.95946 14.2876 6.67092 14.2876Z" fill="#86522C"/>
<path d="M11.2216 1.19901C16.5461 1.19901 20.874 5.51382 20.874 10.8515C20.874 11.0744 20.8608 11.2973 20.8477 11.5074C20.8083 11.9795 20.415 12.3336 19.9823 12.3336C19.8904 12.3336 19.7857 12.3205 19.6938 12.2811C18.2248 11.7303 17.2676 9.80236 15.3137 9.76325C14.8416 9.75012 14.3824 9.48783 14.1595 9.068C13.3333 7.52052 13.0579 7.42862 11.1037 7.42862C8.92662 7.42862 7.261 8.16298 7.261 10.3926C7.261 11.9926 7.6677 13.8549 6.68392 13.8549C5.38561 13.8549 7.18223 9.84175 4.97918 9.78924H4.91354C2.77586 9.78924 3.95629 12.3336 3.51049 12.7532C3.35295 12.8976 3.1563 12.9498 2.94653 12.9498C2.42195 12.9498 1.84487 12.5825 1.68733 12.2286C1.66107 11.9532 1.59543 11.1269 1.59543 10.8515C1.56918 5.51382 5.89705 1.19901 11.2216 1.19901ZM11.2216 0.333374C5.42499 0.333374 0.716675 5.04175 0.716675 10.8384C0.716675 11.0876 0.769187 11.6515 0.808571 12.163L0.821699 12.294C0.834827 12.399 0.861083 12.5038 0.900467 12.5957C1.22839 13.2775 2.12028 13.8024 2.9334 13.8024C3.36608 13.8024 3.75964 13.658 4.07444 13.3825C4.53338 12.9761 4.49399 12.3728 4.45461 11.7825C4.44148 11.4809 4.38897 10.8644 4.53338 10.7202C4.55963 10.694 4.67751 10.6415 4.91354 10.6415H4.95293C4.99231 10.6415 5.11019 10.6415 5.14958 10.6809C5.34622 10.8775 5.31997 11.7431 5.30684 12.2152C5.28058 13.0415 5.26745 13.8283 5.75265 14.3267C5.98868 14.5758 6.3166 14.7071 6.68392 14.7071C7.09061 14.7071 7.44452 14.5627 7.70681 14.2744C8.2839 13.658 8.23138 12.635 8.16574 11.4546C8.13949 11.1004 8.12636 10.7202 8.12636 10.3792C8.12636 9.74958 8.12636 8.26773 11.1034 8.26773C12.769 8.26773 12.769 8.26773 13.3984 9.4613C13.7657 10.1563 14.5 10.5892 15.2869 10.6024C16.1525 10.6155 16.7821 11.1661 17.5165 11.8088C18.0804 12.294 18.6575 12.8057 19.3787 13.068C19.5622 13.1336 19.7723 13.173 19.9689 13.173C20.874 13.173 21.6346 12.4647 21.6868 11.5468C21.6999 11.3107 21.7131 11.0616 21.7131 10.8255C21.7267 5.05488 17.0184 0.333374 11.2216 0.333374Z" fill="#4C2F1B"/>
<path d="M12.6692 20.2904C12.7422 20.4813 13.042 20.5439 13.3387 20.4301C13.6355 20.3166 13.8168 20.0699 13.7438 19.879C13.6707 19.6881 13.371 19.6258 13.0742 19.7393C12.7775 19.853 12.5962 20.0997 12.6692 20.2904Z" fill="#E3A358"/>
<path d="M18.1972 16.7584C18.325 17.092 18.6357 17.3267 19.0123 17.374C19.3889 17.4211 19.774 17.2736 20.0229 16.9873C20.2717 16.7007 20.3464 16.3186 20.2187 15.9849C20.091 15.6509 19.7803 15.4165 19.4037 15.3692C19.027 15.3222 18.6417 15.4696 18.3928 15.756C18.1439 16.0426 18.0695 16.4247 18.1972 16.7584Z" fill="#E3A358"/>
<path d="M8.65109 20.9211C8.77882 21.2548 9.08951 21.4894 9.46612 21.5367C9.84273 21.5838 10.2281 21.4364 10.477 21.15C10.7259 20.8634 10.8005 20.4813 10.6728 20.1476C10.5451 19.8139 10.2344 19.5793 9.85777 19.532C9.48116 19.4849 9.0958 19.6323 8.84692 19.9187C8.59803 20.2053 8.52337 20.5874 8.65109 20.9211Z" fill="#E3A358"/>
<path d="M6.54979 19.3793C6.75026 19.4247 6.95101 19.3982 7.07682 19.3093C7.20236 19.2204 7.23354 19.0831 7.1586 18.9485C7.08366 18.8142 6.91409 18.7032 6.71361 18.6578C6.51314 18.6121 6.31239 18.6389 6.18658 18.7278C6.06104 18.8167 6.02986 18.954 6.1048 19.0883C6.17947 19.2229 6.34931 19.3336 6.54979 19.3793Z" fill="#E3A358"/>
<path d="M10.8414 15.3078C11.0085 15.3459 11.1715 15.3428 11.2691 15.2996C11.3667 15.2564 11.384 15.1801 11.3148 15.0991C11.2453 15.0182 11.0995 14.9449 10.9324 14.9069C10.7653 14.8689 10.6023 14.8719 10.5047 14.9151C10.407 14.9583 10.3898 15.0346 10.459 15.1156C10.5285 15.1968 10.6742 15.2698 10.8414 15.3078Z" fill="#E3A358"/>
<path d="M3.29469 16.2476C3.42378 16.2769 3.55315 16.258 3.63465 16.1984C3.71616 16.1385 3.73667 16.0469 3.68935 15.958C3.64176 15.8688 3.53318 15.7961 3.40436 15.7668C3.27527 15.7375 3.14591 15.7561 3.06468 15.816C2.98317 15.8756 2.96239 15.9675 3.00998 16.0564C3.05702 16.1453 3.16587 16.2183 3.29469 16.2476Z" fill="#E3A358"/>
<path d="M8.49103 14.3424C8.66115 14.4578 8.84166 14.53 8.96474 14.5316C9.08781 14.5333 9.13486 14.4641 9.08781 14.3503C9.04104 14.2362 8.9073 14.0951 8.73718 13.9797C8.56707 13.8643 8.38656 13.7921 8.26321 13.7904C8.14013 13.7888 8.09336 13.858 8.14013 13.9718C8.18717 14.0858 8.32092 14.2269 8.49103 14.3424Z" fill="#E3A358"/>
<path d="M11.2222 21.6667C5.34031 21.6667 0.55542 16.8817 0.55542 11.0003C0.55542 5.11833 5.34031 0.333374 11.2222 0.333374C17.1039 0.333374 21.8888 5.11833 21.8888 11.0003C21.8888 16.8817 17.1036 21.6667 11.2222 21.6667ZM11.2222 1.50069C5.99179 1.50069 1.73667 5.75614 1.73667 10.9864C1.73667 16.2166 5.99207 20.472 11.2222 20.472C16.4524 20.472 20.7078 16.2169 20.7078 10.9864C20.7078 5.75587 16.4524 1.50069 11.2222 1.50069ZM11.2222 14.9401C9.04953 14.9401 7.28217 13.1728 7.28217 11.0003C7.28217 8.82021 9.04953 7.04653 11.2222 7.04653C13.3946 7.04653 15.162 8.81392 15.162 10.9866C15.162 13.1665 13.3946 14.9401 11.2222 14.9401ZM11.2222 8.22725C9.70074 8.22725 8.46315 9.46513 8.46315 10.9864C8.46315 12.5076 9.70101 13.7455 11.2222 13.7455C12.7434 13.7455 13.9813 12.5076 13.9813 10.9864C13.981 9.46513 12.7434 8.22725 11.2222 8.22725Z" fill="#4C2F1B"/>
<path d="M11.7975 5.4928L9.49595 3.97212C9.39995 3.91714 9.38627 3.79407 9.44097 3.69807L9.70135 3.31461C9.75605 3.21861 9.8794 3.20494 9.9754 3.25964L12.2769 4.78032C12.3729 4.8353 12.3866 4.95865 12.3316 5.05437L12.0712 5.4381C12.0168 5.53383 11.8935 5.5475 11.7975 5.4928Z" fill="#DB79AD"/>
<path d="M2.65973 7.90403L3.26252 6.58902C3.30355 6.49302 3.42689 6.452 3.52289 6.49302L3.94764 6.68475C4.04364 6.72578 4.08466 6.84913 4.04364 6.94513L3.44084 8.26013C3.39954 8.35613 3.27647 8.39716 3.18047 8.35613L2.75572 8.16441C2.65973 8.10943 2.60502 8.00003 2.65973 7.90403ZM17.6197 7.79436L16.4688 6.90383C16.3867 6.83545 16.3728 6.7121 16.4277 6.62978L16.7155 6.26C16.7838 6.17795 16.9072 6.164 16.9895 6.21897L18.1404 7.1095C18.2225 7.17815 18.2364 7.30123 18.1814 7.38355L17.8937 7.7536C17.8253 7.84933 17.702 7.86273 17.6197 7.79436Z" fill="#F6B173"/>
<path d="M14.729 5.93113L13.9345 4.1364C13.8935 4.0404 13.9345 3.91705 14.0305 3.87602L14.455 3.68429C14.551 3.64327 14.6743 3.68429 14.7153 3.78029L15.5099 5.57503C15.5509 5.67103 15.5099 5.79411 15.4139 5.8354L14.9891 6.02713C14.8937 6.06816 14.784 6.02686 14.729 5.93113ZM5.90643 9.2739L5.11191 7.47917C5.07088 7.38317 5.11191 7.26009 5.2079 7.21879L5.63265 7.02706C5.72865 6.98604 5.85173 7.02706 5.89302 7.12306L6.68754 8.9178C6.72857 9.0138 6.68754 9.13715 6.59154 9.17817L6.1668 9.3699C6.0574 9.4246 5.94772 9.3699 5.90643 9.2739Z" fill="#F7E774"/>
<path d="M6.27658 5.56111L7.09872 3.78005C7.13975 3.68405 7.2631 3.64302 7.35909 3.68405L7.78384 3.87578C7.87984 3.9168 7.92086 4.04015 7.87984 4.13615L7.0577 5.91721C7.01667 6.01321 6.89332 6.05424 6.79732 6.01321L6.37258 5.82149C6.27658 5.78046 6.23555 5.67078 6.27658 5.56111ZM18.6473 10.0274L18.9213 8.082C18.935 7.97232 19.031 7.90395 19.1407 7.91762L19.6065 7.986C19.7161 7.99967 19.7845 8.09567 19.7708 8.20507L19.4968 10.1505C19.4831 10.2599 19.3871 10.3286 19.2777 10.3149L18.8119 10.2465C18.702 10.2328 18.6336 10.1371 18.6473 10.0274Z" fill="#EC6A69"/>
<path d="M5.25734 16.732C5.35307 16.7812 5.45946 16.7916 5.53659 16.7596C5.61344 16.7276 5.64927 16.6578 5.6304 16.5766C5.61153 16.4954 5.54069 16.4152 5.44497 16.366C5.34924 16.3168 5.24285 16.3064 5.16572 16.3384C5.08887 16.3704 5.05304 16.4401 5.07191 16.5214C5.09078 16.6023 5.16135 16.6827 5.25734 16.732Z" fill="#E3A358"/>
<path d="M15.331 17.2132C15.3553 17.2772 15.4563 17.3064 15.5949 17.2897C15.7339 17.2733 15.89 17.2134 16.0044 17.133C16.1187 17.0526 16.1742 16.9635 16.1499 16.8995C16.1253 16.8355 16.0246 16.8062 15.8857 16.8226C15.7467 16.839 15.5906 16.8986 15.4762 16.9793C15.3619 17.06 15.3064 17.1492 15.331 17.2132Z" fill="#E3A358"/>
<path d="M9.18101 16.4944C9.31092 16.5904 9.46518 16.6328 9.58552 16.6058C9.70586 16.5787 9.77423 16.4862 9.76439 16.3632C9.75482 16.2404 9.66894 16.1052 9.53902 16.0092C9.40911 15.9132 9.25486 15.8709 9.13452 15.8979C9.01418 15.925 8.9458 16.0175 8.95565 16.1405C8.96495 16.2639 9.0511 16.3987 9.18101 16.4944Z" fill="#E3A358"/>
<path d="M13.0197 18.3328C13.0353 18.4452 13.1877 18.5168 13.36 18.493C13.5325 18.4692 13.6594 18.3587 13.6439 18.2463C13.6283 18.1339 13.4759 18.062 13.3036 18.0861C13.131 18.1099 13.0041 18.2204 13.0197 18.3328Z" fill="#E3A358"/>
</g>
<defs>
<clipPath id="clip0_1_16373">
<rect width="21.3333" height="21.3333" fill="white" transform="translate(0.55542 0.333374)"/>
</clipPath>
</defs>
</svg>
