<svg width="51" height="51" viewBox="0 0 51 51" fill="none" xmlns="http://www.w3.org/2000/svg">
<g clip-path="url(#clip0_1_17710)">
<path d="M27.0587 26.3558C20.8863 32.1347 13.4937 33.3821 12.6724 33.5062C11.4079 33.6937 10.1439 33.385 9.11608 32.6239C8.08796 31.8623 7.4126 30.7482 7.22622 29.4838C6.99153 27.9269 7.54004 26.3491 8.69136 25.2712C9.39884 24.6088 10.277 24.1843 11.2385 24.0335C11.4406 24.0014 16.4144 23.1675 20.4398 19.3987C22.8105 17.1792 24.3794 14.376 25.1021 11.0688C25.3119 10.1152 25.7935 9.25937 26.5052 8.59306C27.6565 7.51514 29.2633 7.06775 30.8015 7.40434C32.0512 7.67316 33.1181 8.42068 33.8104 9.49666C34.5026 10.5726 34.7311 11.8581 34.4569 13.104C33.3086 18.376 30.8208 22.8336 27.0587 26.3558Z" fill="#F4A360"/>
<path d="M27.8243 27.1742C21.6438 32.9606 14.2576 34.3933 12.8395 34.622C11.2807 34.855 9.72011 34.4671 8.44894 33.5288C7.17546 32.5888 6.34583 31.2122 6.11432 29.6516C5.82425 27.7291 6.50078 25.7857 7.9245 24.4528C8.79534 23.6374 9.87509 23.1064 11.047 22.9169C11.0856 22.9124 15.8535 22.1418 19.6658 18.5726C21.8639 16.5145 23.321 13.9067 23.9963 10.8215C24.2532 9.64489 24.8533 8.58881 25.7315 7.76658C27.1552 6.43363 29.1389 5.8864 31.0375 6.30229C32.5827 6.6415 33.9028 7.55957 34.753 8.88726C35.6056 10.2174 35.89 11.8001 35.5539 13.3433C34.3549 18.8415 31.7543 23.4947 27.8243 27.1742ZM9.45696 26.0896C8.5798 26.9108 8.15818 28.116 8.32878 29.3136C8.62647 31.3131 10.4962 32.6947 12.4971 32.3949C12.8087 32.349 20.2224 31.2126 26.2843 25.5371C29.8705 22.1797 32.2492 17.9169 33.3541 12.8677C33.5646 11.9127 33.3898 10.932 32.8616 10.1079C32.3329 9.2831 31.5137 8.71378 30.5554 8.50537C29.3776 8.24942 28.1483 8.58919 27.2663 9.41502C26.7204 9.92608 26.3484 10.5807 26.1907 11.3081C25.4182 14.8446 23.7395 17.8433 21.2009 20.22C17.0441 24.1119 11.9652 25.0507 11.3996 25.145C10.6728 25.2549 9.99966 25.5815 9.45696 26.0896Z" fill="#4C2F1B"/>
<path d="M30.7134 29.6269C25.2804 34.7135 18.2656 37.1887 13.5083 37.8126C12.2403 37.9803 10.9852 37.6417 9.96922 36.8615C8.95362 36.081 8.30578 34.9562 8.14275 33.6845C7.94569 32.16 8.49677 30.6173 9.62039 29.5653C10.3521 28.8803 11.2652 28.4454 12.261 28.315C12.3388 28.3019 14.3191 28.0294 16.892 27.0672C19.7706 25.9911 22.2251 24.5181 24.1838 22.6842C27.0221 20.0268 28.7301 16.6583 29.2543 12.6753C29.3992 11.5799 29.9213 10.5587 30.7287 9.80276C31.7801 8.81839 33.2051 8.36102 34.6318 8.54694C35.8966 8.71164 37.029 9.36042 37.8085 10.3771C38.5879 11.3938 38.9217 12.6476 38.7592 13.9166C37.9366 20.1141 35.2307 25.3976 30.7134 29.6269Z" fill="#FF6C4A"/>
<path d="M31.4878 30.4538C25.8662 35.717 18.5913 38.2833 13.6576 38.9303C12.0892 39.1341 10.5364 38.7165 9.28511 37.7538C8.03741 36.7943 7.23654 35.4006 7.02947 33.8303C6.78252 31.9489 7.46508 30.0485 8.8548 28.7474C9.75965 27.9002 10.885 27.3658 12.1091 27.2018C12.1255 27.1996 14.0217 26.9413 16.501 26.0176C19.243 24.9924 21.5703 23.5957 23.4178 21.8659C26.0584 19.3937 27.6464 16.2531 28.1374 12.5312C28.3116 11.1784 28.9582 9.9177 29.9592 8.98059C31.2612 7.76154 33.0182 7.20049 34.7789 7.44176C36.3409 7.64362 37.7324 8.44617 38.6996 9.70123C39.6638 10.9525 40.08 12.5051 39.8725 14.0725C39.0201 20.5313 36.1993 26.0427 31.4878 30.4538ZM10.3905 30.3877C9.53056 31.1928 9.1068 32.3705 9.25633 33.5378C9.51681 35.5433 11.3595 36.9613 13.3636 36.7C17.9472 36.1 24.7108 33.7121 29.9478 28.8089C34.2712 24.7612 36.8589 19.7013 37.6387 13.7694C37.7665 12.7998 37.5095 11.8382 36.9142 11.0625C36.3183 10.2855 35.4553 9.7874 34.4831 9.66039C33.3867 9.5195 32.2977 9.86994 31.4949 10.6216C30.8761 11.2009 30.4754 11.983 30.3668 12.8241C29.8097 17.0713 27.9882 20.665 24.9532 23.5066C22.8865 25.4415 20.3072 26.994 17.2863 28.1212C14.5288 29.149 12.4349 29.4261 12.4141 29.4284C11.6524 29.5297 10.9525 29.8615 10.3905 30.3877Z" fill="#4C2F1B"/>
<path d="M19.5808 31.6858C18.7096 32.5015 17.6083 31.9583 16.8764 31.6017C16.1106 31.2243 15.709 31.0758 15.5211 31.2517C15.0653 31.6784 14.3536 31.6553 13.9272 31.2C13.5009 30.7446 13.5247 30.0329 13.9804 29.6062C15.3116 28.3599 16.9095 29.1053 17.8091 29.5447C17.7009 28.7244 17.5955 27.4658 18.5751 26.5487C19.5623 25.6244 20.8429 25.7821 21.6918 25.8793C21.846 25.9 22.0502 25.9256 22.2089 25.9348C22.2324 25.688 22.222 25.308 22.215 25.0602C22.1901 24.1764 22.1655 23.1727 22.8453 22.5362C23.5528 21.8738 24.6496 21.9709 25.6187 22.0608C25.7344 22.0721 25.8655 22.0841 26.001 22.0926C25.9979 22.0653 25.9948 22.0459 25.9878 22.0222C25.857 21.1777 25.664 19.8972 26.5752 19.0442C27.2907 18.3742 28.3252 18.4771 29.2358 18.577C29.3249 18.5836 29.4329 18.5949 29.5408 18.6063C29.5333 18.5982 29.5339 18.5904 29.53 18.5862C29.0924 17.6543 28.2785 15.9278 29.5978 14.6926C30.0535 14.2659 30.7653 14.289 31.1916 14.7444C31.6179 15.1997 31.5942 15.9115 31.1384 16.3382C31.0652 16.5566 31.4052 17.2801 31.5719 17.6262C31.9552 18.4361 32.4798 19.5494 31.6044 20.369C30.9046 21.0242 29.8935 20.9217 29.0018 20.8265C28.7511 20.799 28.3615 20.7595 28.1286 20.7672C28.1091 21.003 28.1759 21.4348 28.2139 21.6917C28.3315 22.4505 28.4618 23.3106 27.8142 23.9168C27.2105 24.4821 26.3384 24.3994 25.4116 24.3153C25.1414 24.2909 24.7395 24.2544 24.4686 24.2616C24.4533 24.4856 24.466 24.7957 24.4705 25.0091C24.4974 25.9429 24.5201 27.0009 23.7923 27.6823C23.0968 28.3335 22.1669 28.2222 21.4149 28.1315C20.8824 28.068 20.3311 27.9999 20.1113 28.2057C19.9353 28.3704 19.979 28.8015 20.0559 29.3966C20.1576 30.0744 20.2844 31.0271 19.5808 31.6858Z" fill="#F9AF38"/>
<path d="M33.8662 33.811C28.1215 39.1895 21.4679 41.1615 20.1291 41.366C18.8638 41.5534 17.7117 41.3727 16.8002 40.8398C15.7595 40.2327 15.0779 39.1842 14.8847 37.8887C14.65 36.3318 15.1985 34.7541 16.3499 33.6761C17.0573 33.0138 17.9352 32.5889 18.897 32.4377C19.0991 32.4056 24.073 31.5717 28.0987 27.8026C30.4694 25.5831 32.0383 22.7799 32.761 19.4727C32.9711 18.5194 33.4527 17.6636 34.1644 16.9973C35.3161 15.9191 36.9222 15.4717 38.4603 15.8083C39.7332 16.0856 40.7221 16.7491 41.317 17.7211C41.8934 18.6656 42.0555 19.8324 41.7776 21.0976C40.4885 26.9661 37.216 30.6748 33.8662 33.811Z" fill="#F4A360"/>
<path d="M34.6323 34.6373C27.852 40.9853 20.3561 42.4688 20.2813 42.483C18.7701 42.7107 17.3643 42.4803 16.2263 41.8137C14.8826 41.0242 14.0084 39.69 13.7654 38.0567C13.4754 36.1342 14.1519 34.1908 15.5756 32.8578C16.4503 32.0389 17.532 31.5106 18.7033 31.3303C18.7456 31.3248 23.5392 30.5283 27.3238 26.985C29.5219 24.927 30.9787 22.3195 31.6543 19.2339C31.9116 18.0576 32.5109 17.0015 33.3891 16.1793C34.8129 14.8464 36.7966 14.2991 38.6951 14.715C40.2749 15.0581 41.511 15.8963 42.2693 17.1392C43.0019 18.3398 43.2092 19.7929 42.8691 21.3418C41.5253 27.5074 38.116 31.3756 34.6323 34.6373ZM17.112 34.4982C16.2338 35.3204 15.8108 36.5269 15.9803 37.7255C16.2628 39.6131 17.7839 40.5829 19.9503 40.259C20.0152 40.2488 26.8796 38.8097 33.0884 32.9967C36.3047 29.9855 39.4483 26.4316 40.6673 20.8627C40.8871 19.8635 40.7664 18.9644 40.317 18.2637C39.8821 17.5857 39.1542 17.1195 38.2108 16.9143C37.0327 16.6587 35.8034 16.9984 34.9217 17.8239C34.3762 18.3347 34.0042 18.9893 33.8461 19.717C33.0736 23.2535 31.3946 26.2525 28.8563 28.6289C24.6963 32.5237 19.6202 33.4599 19.055 33.554C18.3279 33.6635 17.6544 33.9904 17.112 34.4982Z" fill="#4C2F1B"/>
<path d="M24.8601 37.3492C24.7441 37.4579 24.5831 37.5185 24.4136 37.4977C24.1053 37.4643 23.8816 37.186 23.9192 36.8734C24.1007 35.2719 22.7995 34.4512 22.7462 34.4189C22.4803 34.2551 22.3991 33.9118 22.5592 33.6422C22.7229 33.3765 23.0631 33.2908 23.3321 33.4503C23.4158 33.4996 25.3094 34.6648 25.0416 36.9992C25.0182 37.1414 24.9558 37.2596 24.8601 37.3492ZM32.5405 32.1074C32.4686 32.1746 32.3781 32.222 32.2763 32.2496C31.9718 32.3171 31.6725 32.1254 31.6056 31.8213C31.2527 30.2027 29.8473 30.0718 29.8359 30.0674C29.527 30.0417 29.2959 29.771 29.3218 29.4621C29.3474 29.1529 29.6187 28.9219 29.9276 28.9476C30.6998 29.0114 32.2824 29.6435 32.7056 31.5782C32.7489 31.7769 32.6804 31.9764 32.5405 32.1074Z" fill="#4C2F1B"/>
<path d="M38.371 24.5045C38.3069 24.5646 38.228 24.6082 38.1418 24.6363C37.841 24.7234 37.5331 24.5469 37.446 24.2459C37.0375 22.7998 35.4752 22.8302 35.4096 22.8318C35.0996 22.8374 34.8403 22.6004 34.8272 22.2899C34.8141 21.9801 35.0591 21.7204 35.3693 21.7074C36.2382 21.6735 38.0133 22.0952 38.5325 23.9399C38.588 24.1509 38.519 24.366 38.371 24.5045Z" fill="#4C2F1B"/>
<path d="M39.6897 9.24599C39.586 9.34314 39.4556 9.41261 39.3152 9.44676L37.9257 9.77352C37.5 9.87176 37.0709 9.62213 36.9493 9.20351L36.5642 7.87021C36.4774 7.56955 36.5654 7.25452 36.7932 7.04117C37.0572 6.79401 37.4461 6.74483 37.7576 6.9251L39.5329 7.93166C39.7611 8.06303 39.9122 8.28836 39.946 8.54926C39.9754 8.80629 39.8815 9.06644 39.6897 9.24599Z" fill="#FF6C4A"/>
<path d="M37.1742 7.44866C37.2502 7.37743 37.3669 7.35031 37.4773 7.41197L39.2523 8.41818C39.4155 8.51247 39.4242 8.72195 39.3043 8.83421C39.2724 8.86408 39.2329 8.88589 39.1863 8.9L37.7968 9.22675C37.6603 9.2573 37.5274 9.17928 37.4889 9.05034L37.1036 7.70923C37.0758 7.6078 37.1061 7.51233 37.1742 7.44866ZM36.4038 6.62587C36.0199 6.98528 35.8744 7.51852 36.0162 8.0227L36.4017 9.35566C36.6067 10.063 37.3319 10.4856 38.0502 10.3153L39.4396 9.98856C39.6776 9.93074 39.8947 9.81757 40.0707 9.65279C40.3907 9.35312 40.5526 8.90906 40.4972 8.4739C40.4457 8.04227 40.1837 7.65067 39.8036 7.43659L38.0284 6.43003C37.5043 6.13452 36.8477 6.21033 36.4038 6.62587Z" fill="#4C2F1B"/>
<path d="M7.81339 36.9465C7.62162 37.1261 7.35585 37.2027 7.09773 37.1518C6.83996 37.1007 6.62867 36.9389 6.50864 36.699L5.62104 34.8614C5.46551 34.535 5.53631 34.1539 5.80415 33.9031C6.03203 33.6898 6.35183 33.6224 6.64647 33.7291L7.95154 34.2011C8.36058 34.3499 8.58245 34.7949 8.45608 35.2129L8.03864 36.5779C7.99505 36.7239 7.91751 36.849 7.81339 36.9465Z" fill="#FF6C4A"/>
<path d="M6.1892 34.3223C6.25721 34.2586 6.35086 34.2308 6.4542 34.2688L7.75891 34.7411C7.88505 34.788 7.95776 34.9296 7.91469 35.06L7.49725 36.4249C7.48043 36.4709 7.45574 36.5085 7.42384 36.5384C7.30394 36.6506 7.09547 36.6282 7.01213 36.4591L6.12453 34.6215C6.07804 34.5085 6.11312 34.3935 6.1892 34.3223ZM5.41886 33.4995C4.97503 33.9151 4.84871 34.5657 5.11665 35.1161L6.00424 36.9538C6.19647 37.3509 6.56638 37.6343 6.99369 37.7141C7.42879 37.7944 7.87835 37.6654 8.19808 37.366C8.37407 37.2012 8.50512 36.9892 8.57463 36.7584L8.99207 35.3935C9.20888 34.6877 8.83557 33.9362 8.13876 33.6887L6.83404 33.2164C6.3444 33.03 5.80275 33.1401 5.41886 33.4995Z" fill="#4C2F1B"/>
</g>
<defs>
<clipPath id="clip0_1_17710">
<rect width="44.9726" height="25.6986" fill="white" transform="translate(0.611572 31.2856) rotate(-43.1142)"/>
</clipPath>
</defs>
</svg>
