<svg width="18" height="32" viewBox="0 0 18 32" fill="none" xmlns="http://www.w3.org/2000/svg">
<g clip-path="url(#clip0_1_16351)">
<path d="M4.19018 12.391C4.19018 12.391 2.1832 8.75579 6.75029 6.55675C11.3177 4.3577 10.418 2.10555 10.3836 0.722534C10.3836 0.722534 14.2241 2.07026 14.2241 6.09563C14.2241 10.7592 4.19018 12.391 4.19018 12.391Z" fill="white"/>
<path d="M11.3869 2.24766C11.3869 2.24766 12.3902 5.93626 10.4353 7.30146C8.4805 8.667 5.66037 9.07467 4.62262 10.6886C4.62262 10.6886 6.09318 11.4512 8.42869 10.8482C10.7642 10.2453 14.224 6.66322 14.224 6.66322C14.224 6.66322 15.712 0.95303 11.3869 2.24766Z" fill="#5A85FF"/>
<path d="M11.4211 2.35391C11.4211 2.35391 13.2549 4.7126 12.8225 6.29055C12.39 7.86883 10.4351 8.89727 10.141 8.96819C9.84691 9.0391 5.62574 9.96134 4.63947 10.6883C4.63947 10.6883 9.27574 10.6527 10.5735 9.92571C11.8883 9.19874 14.7081 7.28336 14.0681 5.75851C13.4281 4.23367 12.8398 1.59132 11.4211 2.35391Z" fill="#507BE1"/>
<path d="M4.35169 13.1444C4.28318 13.13 4.23772 13.13 4.18993 13.13C3.93024 13.13 3.69161 12.9892 3.56728 12.7624C3.41555 12.464 2.69832 10.9176 3.23574 9.20194C3.67156 7.8268 4.75777 6.71203 6.46328 5.88949C10.0006 4.20466 9.8576 2.69523 9.73126 1.36361C9.71388 1.13339 9.6965 0.937433 9.67913 0.741474C9.67979 0.516397 9.78942 0.285837 9.97324 0.140924C10.0959 0.0515097 10.2486 0.00012207 10.3987 0.00012207C10.4792 0.00012207 10.5578 0.0145106 10.632 0.0429451C11.3726 0.331744 14.9621 1.94429 14.9621 6.13101C14.9621 11.2883 5.12307 13.017 4.35169 13.1444ZM11.2082 2.31085C11.1494 3.70962 10.6266 5.53183 7.07289 7.2242C5.74237 7.86928 4.91351 8.68155 4.60837 9.63907C4.40216 10.3112 4.48304 10.9618 4.58732 11.3897L4.62876 11.5596L4.7962 11.525C5.68756 11.34 13.5032 9.61646 13.5032 6.09641C13.5032 4.09743 12.4097 2.85864 11.4923 2.17108L11.2225 1.96895L11.2082 2.31085Z" fill="#4C2F1B"/>
<path d="M2.40817 17.4626C2.40817 17.4626 0.141835 13.5256 4.98599 11.5753C9.58784 9.71331 10.6603 11.5396 13.9648 7.30151C14.432 8.17031 16.1098 10.5821 13.7746 13.6143C12.7535 14.9446 4.81286 17.5335 2.40817 17.4626Z" fill="white"/>
<path d="M13.7915 8.47192C13.7915 8.47192 14.5184 12.0896 8.15192 12.6038C3.89599 12.9409 2.33887 16.3103 2.33887 16.3103L12.1478 14.5545L14.985 11.6994L13.7915 8.47192Z" fill="#FF5C68"/>
<path d="M6.78484 30.372C6.35236 30.372 5.97169 30.0528 5.9025 29.6094L4.93361 23.7043C4.8818 23.4385 4.96837 23.1548 5.14149 22.9595C5.31428 22.7468 5.55659 22.6403 5.83332 22.6403H11.7674C12.0267 22.6403 12.2864 22.7643 12.4592 22.9595C12.6323 23.1726 12.7015 23.4385 12.6671 23.7043L11.6982 29.6094C11.629 30.0528 11.2483 30.372 10.8158 30.372H6.78484Z" fill="#FFCD8A"/>
<path d="M6.78497 31.1111C5.99355 31.1111 5.30339 30.5139 5.17973 29.7226L4.21049 23.8157C4.13162 23.3142 4.26163 22.8192 4.56711 22.4591C4.88695 22.0823 5.34216 21.8661 5.81608 21.8661H11.7501C12.2244 21.8661 12.6796 22.0823 12.9991 22.4591C13.3039 22.8342 13.4349 23.3296 13.3557 23.8161L12.3868 29.7209C12.2454 30.5252 11.57 31.1107 10.7812 31.1107H6.78497V31.1111ZM6.63357 29.6153H10.9323L11.9613 23.344H5.60452L6.63357 29.6153Z" fill="#4C2F1B"/>
<path d="M13.5 25.1798L8.84631 25.4405H8.73736L4.08371 25.1794C3.62917 25.1609 3.22911 24.8067 3.15659 24.3408L2.37519 20.1486C2.26623 19.5152 2.73881 18.9191 3.35678 18.9191H14.2272C14.8636 18.9191 15.3362 19.5152 15.2088 20.1486L14.4274 24.3411C14.3362 24.8071 13.9545 25.1425 13.5 25.1798Z" fill="#FFCD8A"/>
<path d="M1.54309 21.3834L1.96387 20.7763L9.39554 26.1902L8.97476 26.7972L1.54309 21.3834ZM3.98255 20.8486L4.40333 20.2415L11.8347 25.6554L11.4139 26.2624L3.98255 20.8486ZM6.77159 20.3947L7.19271 19.7876L14.624 25.2015L14.2033 25.8085L6.77159 20.3947ZM8.70772 19.2052L9.1285 18.5981L15.5729 23.2929L15.1518 23.9L8.70772 19.2052Z" fill="#FFBB71"/>
<path d="M7.72922 26.2004L15.1616 20.7875L15.5823 21.3949L8.15 26.8078L7.72922 26.2004ZM5.29846 25.6478L14.4935 18.9509L14.9142 19.5583L5.71924 26.2548L5.29846 25.6478ZM2.48267 25.2058L9.91467 19.793L10.3355 20.4001L2.90345 25.8129L2.48267 25.2058ZM1.54419 23.3018L7.98925 18.6077L8.41003 19.2151L1.96497 23.9092L1.54419 23.3018Z" fill="#FFBB71"/>
<path d="M8.61881 26.9261L4.19978 26.6784C3.01865 26.6288 2.03472 25.7487 1.80511 24.5387L1.06148 20.5493C0.917093 19.7935 1.11829 19.0015 1.61293 18.3763C2.11861 17.7575 2.82548 17.4156 3.60187 17.4156H13.965C14.7337 17.4156 15.4566 17.773 15.8981 18.3715C16.4011 18.9703 16.6006 19.761 16.4532 20.5493L15.7092 24.5393C15.483 25.7322 14.4984 26.612 13.3146 26.6784L8.89053 26.9261H8.61881ZM3.61891 18.8932C3.29071 18.8932 2.97922 19.044 2.76365 19.3074C2.54206 19.5784 2.44915 19.9323 2.50864 20.2786L3.25328 24.2708C3.33382 24.787 3.78602 25.1964 4.30406 25.2177L8.7301 25.4657L8.84374 25.466L13.2825 25.2173C13.8009 25.1748 14.23 24.7863 14.3303 24.2721L15.0742 20.281C15.1424 19.9422 15.0582 19.5911 14.8429 19.3204C14.627 19.0491 14.3069 18.8932 13.9646 18.8932H3.61891Z" fill="#4C2F1B"/>
<path d="M13.8086 8.96863C13.8086 8.96863 14.2066 11.5754 12.5459 12.7812C10.5045 14.5901 4.65704 14.3773 3.20386 15.5298C3.20386 15.5298 12.3728 15.7251 13.4453 13.0293C14.5178 10.3338 14.8637 9.09264 13.8086 8.96863Z" fill="#F93D53"/>
<path d="M2.39073 18.2194C2.14876 18.2194 1.9265 18.0827 1.78112 17.8442C1.76407 17.8182 0.712956 15.9686 1.36602 14.0107C1.81387 12.6503 2.93718 11.602 4.70452 10.8946C6.46785 10.1926 7.7693 10.0175 8.81473 9.87675C10.6025 9.64105 11.5857 9.51121 13.5155 7.04323C13.6495 6.86851 13.846 6.76917 14.0556 6.76917C14.0817 6.76917 14.1077 6.77054 14.1335 6.77396C14.3825 6.78938 14.597 6.93429 14.704 7.15286C14.7297 7.195 14.7448 7.2224 14.7598 7.24947C14.7795 7.28475 14.7996 7.3197 14.819 7.35019C15.3651 8.30086 16.8296 10.8487 14.343 14.0868C13.0777 15.7295 4.99496 18.2197 2.47729 18.2197H2.39073V18.2194ZM13.7662 9.00144C11.9397 10.961 10.5824 11.1368 9.01159 11.3403C7.89964 11.4756 6.77266 11.6489 5.23125 12.2738C3.87867 12.81 3.03443 13.5575 2.72328 14.4955C2.51239 15.1005 2.53511 15.8089 2.79213 16.5986L2.83691 16.7367L2.97829 16.7233C5.75798 16.4595 12.437 14.1412 13.1876 13.1796C14.6241 11.2947 14.3754 9.92848 14.0633 9.06448L13.964 8.78973L13.7662 9.00144Z" fill="#4C2F1B"/>
<path d="M14.6742 12.2313C14.6742 12.2313 13.6361 14.6075 9.57068 15.441C6.30103 16.097 1.40507 15.6716 1.3877 18.899C1.3877 21.9669 13.8437 21.4348 15.3834 18.6685C17.6153 14.6431 14.6742 12.2313 14.6742 12.2313Z" fill="white"/>
<path d="M2.23535 18.9168C4.19019 17.0726 9.3455 18.2076 11.162 17.5334C13.6185 16.6112 14.6739 16.3097 14.8815 13.5433C14.8815 13.5433 18.0302 17.285 13.9992 19.803C11.6636 21.222 3.63639 22.2326 2.23535 18.9168Z" fill="#FFF383"/>
<path d="M14.9159 13.526C14.9159 13.526 18.4626 20.9916 3.20386 19.6264C3.22124 19.6261 20.1407 22.7292 14.9159 13.526Z" fill="#F6E259"/>
<path d="M6.81967 21.6419C5.06803 21.6419 3.61184 21.4432 2.60785 21.0677C1.33649 20.6203 0.666382 19.8707 0.666382 18.8992C0.666382 15.7775 4.14058 15.3729 6.93196 15.0475L7.01251 15.0379C7.98475 14.9385 8.7715 14.8275 9.41387 14.6987C12.8403 13.9999 14.1912 12.1047 14.3075 11.8025L14.2924 11.8611C14.4017 11.6655 14.5802 11.5333 14.7951 11.4891C14.8339 11.4808 14.8736 11.4774 14.9131 11.4774C15.0779 11.4774 15.2513 11.5449 15.3893 11.6631C16.6871 12.806 18.4705 15.8382 15.9177 19.1218C14.6808 20.7594 10.3076 21.6419 6.81967 21.6419ZM14.8402 13.5394C13.9749 14.4445 12.3827 15.6347 9.70931 16.1657C8.90151 16.3274 7.9784 16.4346 7.18196 16.5179C4.12687 16.8656 2.12524 17.2191 2.12524 18.8988C2.12524 19.2486 2.74187 19.5237 3.10951 19.657C4.00221 19.9783 5.25787 20.1482 6.74113 20.1482C9.8537 20.1482 13.9415 19.3469 14.8309 18.1969C16.3984 16.1554 15.6818 14.4182 15.1153 13.5644L14.9926 13.3794L14.8402 13.5394Z" fill="#4C2F1B"/>
</g>
<defs>
<clipPath id="clip0_1_16351">
<rect width="16.5485" height="31.1111" fill="white" transform="translate(0.666382)"/>
</clipPath>
</defs>
</svg>
