<svg width="53" height="49" viewBox="0 0 53 49" fill="none" xmlns="http://www.w3.org/2000/svg">
<rect x="4.23926" y="5.74316" width="48.761" height="43.0728" rx="8.04025" fill="#6C5FBC"/>
<rect x="1.16228" y="1.16228" width="46.4364" height="40.7482" rx="6.87797" fill="#DBD9EE" stroke="#6C5FBC" stroke-width="2.32456"/>
<path d="M37.6357 13.9021L11.2157 13.7853" stroke="#6C5FBC" stroke-width="2.40454" stroke-linecap="round" stroke-linejoin="round"/>
<path d="M37.619 19.192L31.7431 19.166C29.3127 19.1552 27.347 16.7763 27.3559 13.8566C27.3649 10.9368 29.3451 8.57533 31.7755 8.58608L37.6514 8.61206" stroke="#6C5FBC" stroke-width="2.40454" stroke-linecap="round" stroke-linejoin="round"/>
<path d="M20.028 30.8278L12.3513 30.7423C11.7223 30.7396 11.1953 30.1189 11.1833 29.3632L11.1322 27.3707C11.1203 26.5807 11.6513 25.9132 12.3089 25.9161L19.8998 26.0012L20.028 30.8278Z" stroke="#6C5FBC" stroke-width="2.40454" stroke-linecap="round" stroke-linejoin="round"/>
<path d="M32.0855 33.6981L21.2347 33.5642C20.6057 33.5614 20.0786 32.9408 20.0666 32.185L19.9283 25.9841L37.5556 26.1994L37.5675 26.9896C37.6561 30.7342 35.1878 33.7461 32.0855 33.6981Z" stroke="#6C5FBC" stroke-width="2.40454" stroke-linecap="round" stroke-linejoin="round"/>
</svg>
