<svg width="36" height="36" viewBox="0 0 36 36" fill="none" xmlns="http://www.w3.org/2000/svg">
<g clip-path="url(#clip0_1_17727)">
<path d="M1.46149 20.9243V24.8018H32.1923C33.0562 24.8018 33.7154 20.8559 33.7154 20.8559L1.46149 20.9243Z" fill="#F2C05A"/>
<path d="M1.46107 25.7506C0.928481 25.7506 0.510742 25.3339 0.510742 24.8021V20.9242C0.510742 20.4014 0.937046 19.9761 1.46107 19.9761L33.7379 19.9077C34.0061 19.9077 34.2837 20.0347 34.4449 20.2313C34.6302 20.4531 34.7015 20.7226 34.6474 20.9922C33.8598 25.7506 32.6649 25.7506 32.2153 25.7506H1.46107ZM31.9264 23.8765L31.9903 23.7487C32.1343 23.4613 32.3005 22.9513 32.5295 22.0949L32.6073 21.804L2.43436 21.8731V23.8765H2.66562H31.9264Z" fill="#4C2F1B"/>
<path d="M25.4413 1.739C24.7822 1.39875 23.9639 1.48964 23.4184 1.98875L1.48383 20.9243H5.57556V31.8321C5.57556 33.1247 6.62088 34.1676 7.91654 34.1676C9.21219 34.1676 10.2575 33.1247 10.2575 31.8321V20.9243H12.6896V26.0719C12.6896 27.3871 13.7805 28.4758 15.0991 28.4758C16.4173 28.4758 17.5086 27.3875 17.5086 26.0719V20.9243H20.9863C21.3274 22.2169 22.4868 23.1693 23.8731 23.1693C25.2599 23.1693 26.4415 22.2169 26.7599 20.9243L33.7607 20.9017C35.965 8.36105 28.4188 3.23594 25.4413 1.739Z" fill="#FFDE8A"/>
<path d="M18.2132 9.99354C19.554 9.99354 20.6226 8.92773 20.6226 7.58965C20.6226 6.65979 20.0998 5.88879 19.3496 5.48096L15.9629 8.40609C16.3039 9.33596 17.1674 9.99354 18.2132 9.99354Z" fill="#FF5C5C"/>
<path d="M18.2135 10.4697C17.0086 10.4697 15.9177 9.6987 15.5086 8.56492C15.4404 8.38353 15.4856 8.17961 15.6448 8.04367L19.0315 5.11814C19.1678 4.9822 19.3951 4.95928 19.554 5.05017C20.5086 5.54928 21.077 6.5242 21.077 7.56748C21.1003 9.17706 19.8047 10.4697 18.2135 10.4697ZM16.5313 8.54239C16.8723 9.15492 17.5089 9.54022 18.2135 9.54022C19.2818 9.54022 20.1457 8.67872 20.1457 7.61253C20.1457 7.00039 19.8502 6.43331 19.3725 6.07053L16.5313 8.54239Z" fill="#4C2F1B"/>
<path d="M26.1917 12.0571C25.9188 13.2138 26.669 14.393 27.828 14.6423C28.6464 14.8237 29.4417 14.5289 29.942 13.9393L28.0328 10.3791C27.1463 10.4925 26.3961 11.1272 26.1917 12.0571Z" fill="#FF5C5C"/>
<path d="M28.3052 15.1642C28.1234 15.1642 27.919 15.1417 27.7372 15.0963C26.3279 14.7789 25.4188 13.3729 25.7369 11.9443C25.9869 10.8785 26.8733 10.062 27.9872 9.92609C28.169 9.90356 28.3738 9.99406 28.4645 10.1754L30.3737 13.7131C30.4648 13.8945 30.4418 14.0984 30.3056 14.2348C29.7827 14.824 29.0555 15.1642 28.3052 15.1642ZM26.646 12.1482C26.5549 12.6019 26.6234 13.0551 26.8729 13.4179C27.1233 13.8032 27.4869 14.0755 27.9412 14.1664C28.4415 14.2798 28.964 14.1439 29.3731 13.8261L27.805 10.901C27.2144 11.1049 26.7822 11.5582 26.646 12.1482Z" fill="#4C2F1B"/>
<path d="M7.89377 35.0932C6.07877 35.0932 4.60169 33.6199 4.60169 31.8087V21.8494H1.46106C1.05617 21.8494 0.713957 21.609 0.589376 21.2365C0.439877 20.8617 0.549665 20.4484 0.858005 20.1948L22.7969 1.25579C23.3053 0.823094 23.95 0.583832 24.6115 0.583832C25.0471 0.583832 25.4672 0.683266 25.8604 0.879802C28.5241 2.21944 37.0331 7.63003 34.6691 20.9973C34.5971 21.4459 34.1969 21.7815 33.7375 21.7815L27.3908 21.8048L27.3266 21.9291C26.6496 23.2369 25.3173 24.0494 23.85 24.0494C22.383 24.0494 21.0508 23.2372 20.3734 21.9291L20.3084 21.804H18.4361V26.0035C18.4361 27.8395 16.9392 29.333 15.0989 29.333C13.2586 29.333 11.762 27.8395 11.762 26.0039V21.8044H11.208V31.7637C11.187 33.5985 9.7002 35.0932 7.89377 35.0932ZM24.5881 2.48201C24.374 2.48201 24.1758 2.55736 24.0147 2.70029L3.99942 19.9757H5.55241C5.81597 19.9757 6.04567 20.0693 6.19867 20.2395C6.38594 20.4267 6.48015 20.6605 6.48015 20.9242V31.832C6.48015 32.6096 7.11435 33.2424 7.89338 33.2424C8.68603 33.2424 9.3066 32.6228 9.3066 31.832V20.9239C9.3066 20.401 9.73291 19.9757 10.2569 19.9757H12.689C12.9522 19.9757 13.1819 20.0693 13.3353 20.2395C13.5225 20.4267 13.6167 20.6605 13.6167 20.9242V26.0719C13.6167 26.8743 14.2712 27.5273 15.0755 27.5273C15.8799 27.5273 16.5343 26.8743 16.5343 26.0719V20.9013C16.5343 20.3781 16.9606 19.9528 17.4846 19.9528H20.9624C21.3969 19.9528 21.7636 20.2391 21.875 20.6648C22.1074 21.5675 22.9195 22.1982 23.8492 22.1982C24.7789 22.1982 25.591 21.5675 25.8234 20.6644C25.9348 20.2395 26.3015 19.9532 26.7356 19.9532L32.9378 19.9299L32.9655 19.7318C34.5138 8.6737 27.9114 4.05081 25.0008 2.57639C24.8599 2.5123 24.724 2.48201 24.5881 2.48201Z" fill="#4C2F1B"/>
<path d="M33.7376 20.8558C36.0109 8.08865 28.1007 3.03151 25.2595 1.64837C24.6911 1.3761 24.009 1.46698 23.5317 1.87521L21.8043 3.37215C25.5775 6.18387 31.9191 11.3773 29.987 20.8791L33.7376 20.8558Z" fill="#FFB07B"/>
<path d="M29.9875 21.8045C29.7115 21.8045 29.4378 21.6744 29.2564 21.4565C29.0753 21.2402 29.0002 20.9481 29.0551 20.6743C30.719 12.4671 26.0258 7.69855 21.2158 4.11661C20.9884 3.9593 20.8506 3.69285 20.8307 3.38018C20.8132 3.09819 20.932 2.82902 21.157 2.64219L22.8879 1.14214C23.35 0.74402 23.9344 0.524567 24.5332 0.524567C24.9139 0.524567 25.2935 0.615844 25.6318 0.788299C28.3524 2.11201 37.0287 7.47677 34.6239 21.02C34.5519 21.469 34.1517 21.8045 33.6927 21.8045H29.9875ZM24.5464 2.42274C24.3895 2.42274 24.2353 2.47945 24.1111 2.58277L23.285 3.31493L23.503 3.48544C25.6832 5.19368 32.318 10.3922 31.1216 19.6473L31.0881 19.9075H32.9167L32.9444 19.7087C34.5215 8.43965 27.784 3.90881 24.8142 2.48372C24.7352 2.44449 24.6418 2.42274 24.5464 2.42274Z" fill="#4C2F1B"/>
<path d="M29.9874 20.8559C29.9874 20.8559 29.7826 23.3503 28.8735 24.8018H32.2147C32.2147 24.8018 33.3966 24.1667 33.7377 20.8559H29.9874Z" fill="#E2803D"/>
<path d="M28.8734 25.7503C28.5234 25.7503 28.2177 25.5674 28.055 25.2609C27.8849 24.9584 27.8915 24.5967 28.0694 24.312C28.7239 23.2486 28.9933 21.3605 29.0361 20.7825C29.0715 20.3044 29.4795 19.9303 29.9646 19.9303H33.7149C33.9933 19.9303 34.2425 20.0399 34.3997 20.2314C34.5979 20.4493 34.68 20.6986 34.6446 20.9616C34.2592 24.6057 32.8981 25.499 32.6291 25.6412C32.5201 25.7123 32.3655 25.7503 32.2145 25.7503H28.8734ZM30.8056 21.9901C30.7156 22.4391 30.6035 22.998 30.4252 23.5775L30.3333 23.8762H31.8579L31.9272 23.7776C32.0837 23.5542 32.3796 23.0376 32.5995 22.0872L32.6649 21.8044H30.8429L30.8056 21.9901Z" fill="#4C2F1B"/>
<path d="M11.9399 16.1164C11.9399 16.9806 12.6418 17.6809 13.5081 17.6809C14.3743 17.6809 15.0762 16.9806 15.0762 16.1164C15.0762 15.2522 14.3743 14.5518 13.5081 14.5518C12.6418 14.5518 11.9399 15.2522 11.9399 16.1164Z" fill="#FF5C5C"/>
<path d="M13.508 18.1575C12.3941 18.1575 11.4621 17.2506 11.4621 16.1168C11.4621 14.983 12.3712 14.0757 13.508 14.0757C14.6444 14.0757 15.5534 14.9826 15.5534 16.1168C15.5534 17.2502 14.6444 18.1575 13.508 18.1575ZM13.508 15.0281C12.8944 15.0281 12.4171 15.5272 12.4171 16.1164C12.4171 16.706 12.917 17.2047 13.508 17.2047C14.099 17.2047 14.5988 16.7056 14.5988 16.1164C14.5988 15.5268 14.1215 15.0281 13.508 15.0281Z" fill="#4C2F1B"/>
<path d="M21.2363 17.6812H17.9403C17.7585 17.6812 17.5993 17.5223 17.5993 17.341V16.5925C17.5993 16.4111 17.7585 16.2522 17.9403 16.2522H21.2363C21.4181 16.2522 21.5774 16.4111 21.5774 16.5925V17.341C21.5999 17.5223 21.4407 17.6812 21.2363 17.6812Z" fill="#3DE25C"/>
<path d="M20.8727 18.1576H18.3269C17.6678 18.1576 17.145 17.636 17.145 16.9784C17.145 16.3208 17.6678 15.7992 18.3269 15.7992H20.8727C21.5318 15.7992 22.0547 16.3208 22.0547 16.9784C22.0547 17.636 21.5318 18.1576 20.8727 18.1576ZM18.3269 16.7287C18.1907 16.7287 18.077 16.8421 18.077 16.978C18.077 17.1144 18.1907 17.2278 18.3269 17.2278H20.8727C21.0089 17.2278 21.1226 17.1144 21.1226 16.978C21.1226 16.8421 21.0089 16.7287 20.8727 16.7287H18.3269Z" fill="#4C2F1B"/>
<path d="M23.5091 14.2567L21.7587 12.3519C21.6905 12.2839 21.6905 12.1705 21.7587 12.1025L22.5541 11.377C22.6222 11.309 22.7359 11.309 22.8044 11.377L24.5548 13.2818C24.6229 13.3497 24.6229 13.4631 24.5548 13.5311L23.7594 14.2567C23.7134 14.325 23.5772 14.325 23.5091 14.2567Z" fill="#3DE25C"/>
<path d="M23.6688 14.7102H23.6236C23.3963 14.7102 23.1915 14.5968 23.0326 14.438L21.5326 12.828C21.3734 12.6691 21.3052 12.4427 21.3052 12.2159C21.3052 11.9894 21.4189 11.7851 21.5781 11.6262L22.078 11.1726C22.2373 11.0137 22.4646 10.9457 22.692 10.9457C22.9193 10.9457 23.1237 11.0592 23.283 11.218L24.783 12.828C24.9422 12.9869 25.0104 13.2137 25.0104 13.4405C25.0104 13.6674 24.8967 13.8713 24.7375 14.0301L24.2376 14.4838C24.078 14.6193 23.8732 14.7102 23.6688 14.7102ZM22.305 12.2384L23.6688 13.7124L24.0324 13.3722L22.6686 11.8981L22.305 12.2384Z" fill="#4C2F1B"/>
</g>
<defs>
<clipPath id="clip0_1_17727">
<rect width="34.5688" height="34.5688" fill="white" transform="translate(0.510925 0.524597)"/>
</clipPath>
</defs>
</svg>
