<svg width="14" height="14" viewBox="0 0 14 14" fill="none" xmlns="http://www.w3.org/2000/svg">
<path d="M8.50568 11.3038C9.37134 11.7776 10.1326 11.2033 9.96708 10.1983L9.66981 8.39384L10.9291 7.1159C11.6294 6.40516 11.34 5.47387 10.3708 5.32724L8.63062 5.06397L7.85622 3.4303C7.42243 2.51521 6.48058 2.50536 6.04597 3.42219L5.26772 5.06397L3.5275 5.32724C2.55966 5.47366 2.26797 6.40415 2.96929 7.1159L4.22853 8.39384L3.93126 10.1983C3.76594 11.2019 4.52578 11.7783 5.39267 11.3038L6.94917 10.4518L8.50568 11.3038Z" fill="#6C5FBC"/>
<mask id="mask0_1_14678" style="mask-type:luminance" maskUnits="userSpaceOnUse" x="2" y="2" width="10" height="10">
<path d="M8.50568 11.3038C9.37134 11.7776 10.1326 11.2033 9.96708 10.1983L9.66981 8.39384L10.9291 7.1159C11.6294 6.40516 11.34 5.47387 10.3708 5.32724L8.63062 5.06397L7.85622 3.4303C7.42243 2.51521 6.48058 2.50536 6.04597 3.42219L5.26772 5.06397L3.5275 5.32724C2.55966 5.47366 2.26797 6.40415 2.96929 7.1159L4.22853 8.39384L3.93126 10.1983C3.76594 11.2019 4.52578 11.7783 5.39267 11.3038L6.94917 10.4518L8.50568 11.3038Z" fill="white"/>
</mask>
<g mask="url(#mask0_1_14678)">
</g>
</svg>
