<svg width="23" height="17" viewBox="0 0 23 17" fill="none" xmlns="http://www.w3.org/2000/svg">
<g clip-path="url(#clip0_1_16325)">
<path d="M4.11298 3.86926C4.11298 3.86926 13.0532 9.34318 11.9885 13.8253C11.9885 13.8253 3.84365 11.1174 4.11298 3.86926Z" fill="#359A60"/>
<path d="M12.3512 14.4907L11.813 14.3157C11.7311 14.2922 3.31713 11.3977 3.58621 3.85771L3.62137 2.98242L4.3702 3.43747C4.74474 3.67104 13.6266 9.15681 12.468 13.9421L12.3512 14.4907ZM4.63953 4.82632C5.01407 9.86864 9.84697 12.378 11.5556 13.1016C11.6023 10.1489 7.19052 6.54232 4.63953 4.82632Z" fill="#4C2F1B"/>
<path d="M1.19916 5.4917C1.19916 5.4917 3.39913 15.5993 12.7958 15.5993C12.8077 15.5995 10.0109 5.60848 1.19916 5.4917Z" fill="#33AC64"/>
<path d="M12.7958 16.1131C3.0949 16.1131 0.719418 5.71368 0.695904 5.6085L0.555542 4.97815L1.19917 4.98976C10.2916 5.10654 13.264 15.366 13.2875 15.4712L13.4746 16.1247L12.7958 16.1131C12.8077 16.1131 12.7958 16.1131 12.7958 16.1131ZM1.87795 6.04034C2.50994 8.16448 5.02578 14.6542 12.0822 15.0625C11.2979 12.95 8.40755 6.5423 1.87795 6.04034Z" fill="#4C2F1B"/>
<path d="M19.1386 4.52307C19.1386 4.52307 10.4908 10.4407 11.7897 14.8642C11.7897 14.864 19.782 11.7478 19.1386 4.52307Z" fill="#359A60"/>
<path d="M11.4617 15.5528L11.2979 15.0158C9.90541 10.2888 18.483 4.35957 18.8456 4.10279L19.5712 3.60083L19.6531 4.47636C20.32 11.9929 12.0702 15.3076 11.9767 15.3427L11.4617 15.5528ZM18.6585 5.50324C16.2127 7.34739 11.9883 11.1757 12.1871 14.1287C13.8491 13.3 18.5533 10.5456 18.6585 5.50324Z" fill="#4C2F1B"/>
<path d="M22.193 5.71362C22.193 5.71362 11.8365 10.5105 12.4333 15.4827C12.445 15.4827 21.5726 13.5685 22.193 5.71362Z" fill="#33AC64"/>
<path d="M12.0002 16.1012L11.9298 15.541C11.2979 10.2538 21.5491 5.44501 21.9818 5.2465L22.7777 4.87317L22.7074 5.74845C22.0638 13.8954 12.6438 15.9612 12.5383 15.9845L12.0002 16.1012ZM21.5607 6.60053C19.2788 7.77926 13.1938 11.2693 12.9364 14.8173C14.8319 14.2571 20.5544 12.133 21.5607 6.60053Z" fill="#4C2F1B"/>
<path d="M11.509 1.395C12.059 1.395 12.5972 1.66338 12.9014 2.21201L19.0216 13.3586C19.5949 14.4092 18.8344 15.7047 17.6291 15.7047H5.37717C4.17185 15.7047 3.41114 14.4208 3.9847 13.3586L10.1167 2.21201C10.4205 1.66338 10.9587 1.395 11.509 1.395ZM11.509 0.111084C10.4559 0.111084 9.49614 0.682921 8.99287 1.59327L2.86108 12.7398C2.3697 13.6386 2.38133 14.7008 2.90787 15.5761C3.43441 16.4516 4.359 16.9768 5.37693 16.9768H17.6289C18.6587 16.9768 19.583 16.4516 20.0979 15.5761C20.6245 14.7008 20.6363 13.6386 20.1447 12.7398L14.0248 1.59327C13.5215 0.671315 12.5504 0.111084 11.509 0.111084Z" fill="#4C2F1B"/>
<path d="M9.2734 9.4834C9.22662 9.4834 9.19146 9.4834 9.14468 9.47179C8.68844 9.41352 8.41911 9.0165 8.39584 8.96984C8.3139 8.85305 8.34905 8.6896 8.46614 8.61972C8.58299 8.538 8.74687 8.57306 8.81717 8.68984C8.86395 8.75996 9.02783 8.93502 9.21522 8.97008C9.34395 8.98168 9.48431 8.93502 9.62491 8.80663C9.73012 8.7133 9.894 8.7249 9.98757 8.83008C10.0811 8.93502 10.0695 9.09847 9.9643 9.1918C9.7534 9.39007 9.51922 9.4834 9.2734 9.4834Z" fill="#F9E39E"/>
<path d="M12.8776 2.04852L19.3955 13.3351C20.004 14.3854 19.2435 15.7044 18.0263 15.7044H4.97878C3.76182 15.7044 3.00111 14.3854 3.60958 13.3351L10.1392 2.06012C10.7479 0.998177 12.2691 0.998177 12.8776 2.04852Z" fill="#FAF7BD"/>
<path d="M6.74615 7.66272L2.93118 13.3468C2.3227 14.3971 3.08342 15.7161 4.30037 15.7161L12.5621 15.7045C9.71847 14.082 7.43657 8.95824 6.74615 7.66272Z" fill="#3AB26C"/>
<path d="M9.3087 10.8841C9.26191 10.8841 9.22676 10.8841 9.17997 10.8725C8.72374 10.814 8.45441 10.4172 8.43113 10.3705C8.34919 10.2537 8.38435 10.0903 8.50144 10.0204C8.61852 9.93869 8.7824 9.97375 8.85246 10.0905C8.89925 10.1607 9.06312 10.3357 9.25027 10.3708C9.379 10.3942 9.51936 10.3357 9.65997 10.2073C9.76542 10.114 9.92905 10.1256 10.0229 10.2308C10.1164 10.3357 10.1048 10.4992 9.99935 10.5925C9.78869 10.7789 9.55451 10.8841 9.3087 10.8841ZM9.12155 9.4834C9.07476 9.4834 9.03961 9.4834 8.99282 9.47179C8.53659 9.41352 8.26726 9.0165 8.24398 8.96984C8.16205 8.85305 8.1972 8.6896 8.31429 8.61972C8.43113 8.538 8.59501 8.57306 8.66531 8.68984C8.7121 8.75996 8.87598 8.93502 9.06313 8.97008C9.19185 8.98168 9.33221 8.93502 9.47282 8.80663C9.57827 8.7133 9.7419 8.7249 9.83572 8.83008C9.92929 8.93502 9.91766 9.09847 9.81221 9.1918C9.58966 9.39007 9.35548 9.4834 9.12155 9.4834Z" fill="#F9E39E"/>
<path d="M11.2159 14.6657C7.10861 14.3857 4.81483 9.9152 4.72125 9.71694L5.41167 9.36682C5.43518 9.41349 7.6 13.6388 11.2744 13.8837L11.2159 14.6657Z" fill="#2D9556"/>
<path d="M4.38211 16.113L3.71521 15.7163C3.78551 15.6111 5.38864 12.9968 9.78857 11.8295L9.98736 12.5764C5.88003 13.6736 4.39375 16.0896 4.38211 16.113Z" fill="#2D9556"/>
<path d="M6.61748 7.82615C6.65263 7.82615 6.69942 7.8496 6.72293 7.88442C7.56559 9.3666 9.68362 14.1521 12.5624 15.7044H4.5346C3.24735 15.7044 2.43984 14.3855 3.08347 13.3351L6.5239 7.88442C6.54718 7.84936 6.58233 7.82615 6.61748 7.82615ZM6.61748 6.54224C6.12609 6.54224 5.68125 6.78741 5.42404 7.2074L1.995 12.6581V12.6697C1.45683 13.545 1.43331 14.6072 1.93658 15.4943C2.45148 16.4165 3.44613 16.9884 4.5346 16.9884L12.5621 16.9767H17.6643L13.1706 14.5724C11.0877 13.4635 9.30883 10.0436 8.34933 8.21132C8.15055 7.838 7.98667 7.51109 7.83443 7.25431C7.58862 6.81062 7.1205 6.54224 6.61748 6.54224Z" fill="#4C2F1B"/>
<path d="M16.5051 8.32788C14.7148 11.7359 10.7008 15.179 9.97528 15.7045H18.0263C19.2435 15.7045 20.0156 14.3855 19.3955 13.3351L16.5051 8.32788Z" fill="#3AB26C"/>
<path d="M11.3918 16.7432L11.2044 15.9963C16.2948 14.7008 18.2724 10.4523 18.2959 10.4054L18.9982 10.7207C18.9163 10.9074 16.8448 15.3544 11.3918 16.7432Z" fill="#2D9556"/>
<path d="M16.4821 16.4864L15.7332 16.3113C16.5172 12.9267 15.078 9.50684 15.0661 9.47178L15.78 9.16833C15.8266 9.32018 17.3245 12.8564 16.4821 16.4864Z" fill="#2D9556"/>
<path d="M14.2119 9.35498C14.1651 9.35498 14.13 9.35498 14.0832 9.34338C13.6269 9.28511 13.3576 8.88833 13.3343 8.84142C13.2524 8.72487 13.2875 8.56142 13.4046 8.4913C13.5215 8.40958 13.6854 8.44464 13.7557 8.56142C13.8024 8.63154 13.9663 8.8066 14.1537 8.84142C14.2824 8.85302 14.4228 8.80636 14.5634 8.67797C14.6686 8.58464 14.8325 8.59624 14.9261 8.70142C15.0196 8.8066 15.008 8.96981 14.9025 9.06338C14.6916 9.26165 14.4577 9.35498 14.2119 9.35498ZM11.7193 12.623C11.6725 12.623 11.6374 12.623 11.5906 12.6114C11.1341 12.5532 10.865 12.1564 10.8418 12.1097C10.7598 11.9929 10.795 11.8295 10.9121 11.7596C11.0292 11.6779 11.193 11.7129 11.2631 11.8297C11.3099 11.8998 11.4738 12.0749 11.6609 12.11C11.7896 12.1216 11.93 12.0749 12.0706 11.9465C12.176 11.8532 12.3397 11.8648 12.4333 11.9697C12.5268 12.0749 12.5152 12.2381 12.41 12.3317C12.1874 12.5297 11.9535 12.623 11.7193 12.623ZM14.247 10.8256C14.2003 10.8256 14.1651 10.8256 14.1183 10.814C13.6621 10.7557 13.3928 10.3589 13.3695 10.3122C13.2875 10.1955 13.3227 10.032 13.4398 9.96212C13.5569 9.8804 13.7207 9.91546 13.7908 10.0322C13.8376 10.1024 14.0015 10.2774 14.1886 10.3125C14.3173 10.3241 14.4577 10.2774 14.5983 10.149C14.7038 10.0557 14.8674 10.0673 14.9612 10.1722C15.0548 10.2774 15.0432 10.4406 14.9377 10.5342C14.7268 10.7206 14.4926 10.8256 14.247 10.8256Z" fill="#F9E39E"/>
<path d="M16.5053 8.67807C16.5989 8.67807 16.6927 8.72474 16.7511 8.80646L19.4777 13.3234C20.1096 14.3737 19.3138 15.6927 18.0382 15.6927H9.98737C10.7129 15.2026 14.797 12.0627 16.2479 8.84128C16.283 8.73658 16.3885 8.67807 16.5053 8.67807ZM16.5053 7.40601C15.885 7.40601 15.3233 7.76797 15.0658 8.3282C13.8021 11.1061 10.1042 14.0707 9.24993 14.6542L5.83301 17H18.0265C19.1031 17 20.0978 16.4282 20.6127 15.5179C21.1159 14.6191 21.1041 13.5688 20.5659 12.6816L17.8394 8.16475C17.5587 7.68624 17.0554 7.40601 16.5053 7.40601Z" fill="#4C2F1B"/>
<path d="M10.83 4.72135C10.7833 4.72135 10.7246 4.72135 10.678 4.70975C10.2216 4.62802 9.97575 4.23124 9.94085 4.18458C9.87054 4.06803 9.90569 3.90458 10.0344 3.83446C10.1513 3.76434 10.3151 3.7994 10.3854 3.91619C10.4322 3.98631 10.5845 4.17297 10.7716 4.20803C10.9003 4.23148 11.0407 4.18458 11.1813 4.05643C11.2865 3.9631 11.4504 3.98631 11.544 4.09149C11.6375 4.19667 11.6143 4.35987 11.5091 4.45345C11.2863 4.62802 11.064 4.72135 10.83 4.72135ZM11.696 2.88906C11.6492 2.88906 11.5908 2.88906 11.5437 2.87745C11.0875 2.79573 10.8417 2.39895 10.8065 2.35228C10.7362 2.2355 10.7714 2.07204 10.8885 2.00217C11.0056 1.93205 11.1694 1.96711 11.2395 2.08389C11.2863 2.15401 11.4385 2.34068 11.6257 2.37573C11.7544 2.39919 11.8948 2.35252 12.0354 2.22389C12.1408 2.13056 12.3044 2.15377 12.3983 2.25895C12.4918 2.36413 12.4686 2.52734 12.3631 2.62067C12.1522 2.79548 11.9299 2.88906 11.696 2.88906ZM12.9246 4.67469C12.8778 4.67469 12.8193 4.67469 12.7726 4.66308C12.3163 4.58136 12.0705 4.18458 12.0354 4.13791C11.9651 4.02113 12.0005 3.85767 12.1289 3.7878C12.246 3.71768 12.4099 3.75298 12.48 3.86952C12.5267 3.93964 12.6787 4.1263 12.8661 4.16136C12.9949 4.18458 13.1352 4.13791 13.2758 4.00952C13.3813 3.91619 13.5449 3.9394 13.6387 4.04458C13.7323 4.14976 13.709 4.31297 13.6036 4.40654C13.381 4.58136 13.1587 4.67469 12.9246 4.67469ZM12.7607 6.40204C12.351 6.40204 12.0351 6.12205 12.0002 6.08699C11.8948 5.99366 11.8948 5.83021 11.9886 5.72527C12.0821 5.62009 12.246 5.62009 12.3512 5.71366C12.4099 5.77194 12.6087 5.90033 12.7958 5.88872C12.9246 5.87712 13.0416 5.78354 13.1469 5.63194C13.2288 5.51515 13.3927 5.4917 13.5095 5.57343C13.6266 5.65515 13.6501 5.8186 13.5682 5.93539C13.3692 6.21562 13.1233 6.37907 12.8426 6.40229H12.7607V6.40204ZM10.0577 6.29711C9.90569 6.29711 9.77697 6.26205 9.648 6.19193C9.23831 5.98181 9.12146 5.51491 9.10983 5.46825C9.07468 5.32801 9.15661 5.18801 9.29722 5.15295C9.43758 5.11813 9.57794 5.19962 9.60146 5.33986C9.62497 5.42158 9.70691 5.6433 9.88242 5.72503C9.99927 5.7833 10.1399 5.77169 10.3154 5.70158C10.4441 5.65491 10.5964 5.71318 10.6548 5.84157C10.7016 5.96996 10.6431 6.12181 10.5144 6.18008C10.3503 6.2739 10.1981 6.29711 10.0577 6.29711ZM13.8724 7.86101C13.4862 7.86101 13.1936 7.62769 13.1587 7.59263C13.0533 7.49929 13.03 7.33584 13.1236 7.23066C13.2172 7.12548 13.3694 7.10227 13.4865 7.19585C13.5449 7.24251 13.7556 7.3709 13.9427 7.33584C14.0715 7.31239 14.1767 7.21906 14.2821 7.05561C14.3524 6.93906 14.516 6.89216 14.6331 6.97388C14.75 7.044 14.797 7.20721 14.7151 7.324C14.5396 7.61584 14.3054 7.79089 14.0247 7.83756C13.9779 7.84941 13.9311 7.86101 13.8724 7.86101ZM11.7311 8.10619C11.6843 8.10619 11.6492 8.10619 11.6024 8.09458C11.1459 8.03607 10.8768 7.63929 10.8536 7.59263C10.7716 7.47584 10.8068 7.31239 10.9239 7.24251C11.0407 7.16079 11.2046 7.19585 11.2749 7.31263C11.3217 7.38275 11.4855 7.55781 11.6727 7.59287C11.8014 7.60447 11.9418 7.55781 12.0824 7.42942C12.1876 7.33608 12.3515 7.34769 12.4451 7.45263C12.5386 7.55781 12.527 7.72102 12.4218 7.81459C12.199 8.01286 11.9651 8.10619 11.7311 8.10619ZM11.6373 9.42516C11.5905 9.42516 11.5554 9.42516 11.5086 9.41356C11.0521 9.35504 10.783 8.95826 10.7597 8.9116C10.6778 8.79481 10.713 8.63136 10.83 8.56148C10.9471 8.47976 11.111 8.51482 11.1811 8.6316C11.2279 8.70172 11.3917 8.87678 11.5789 8.91184C11.7076 8.92344 11.848 8.87678 11.9886 8.74839C12.094 8.65506 12.2577 8.66666 12.3512 8.7716C12.4448 8.87678 12.4332 9.03999 12.328 9.13356C12.1054 9.33183 11.8715 9.42516 11.6373 9.42516ZM11.6725 11.0241C11.6257 11.0241 11.5905 11.0241 11.5437 11.0125C11.0875 10.9543 10.8182 10.5575 10.7949 10.5106C10.713 10.394 10.7481 10.2306 10.8652 10.1604C10.982 10.0787 11.1459 10.1138 11.2162 10.2306C11.263 10.3007 11.4269 10.4757 11.614 10.5106C11.7428 10.5222 11.8831 10.4755 12.0237 10.3471C12.1292 10.2538 12.2928 10.2654 12.3866 10.3706C12.4802 10.4757 12.4686 10.639 12.3631 10.7323C12.1406 10.9308 11.9183 11.0241 11.6725 11.0241ZM9.40219 7.98941C9.3554 7.98941 9.32025 7.9894 9.27346 7.9778C8.81698 7.91953 8.5479 7.52275 8.52462 7.47584C8.44269 7.3593 8.47784 7.19585 8.59493 7.12573C8.71201 7.044 8.87589 7.07906 8.94595 7.19585C8.99274 7.26597 9.15661 7.44102 9.34376 7.47584C9.47249 7.48745 9.61285 7.44078 9.75345 7.31239C9.85891 7.21906 10.0225 7.23066 10.1164 7.33584C10.2099 7.44102 10.1983 7.60423 10.0928 7.69756C9.88218 7.88447 9.648 7.98941 9.40219 7.98941Z" fill="#F9E39E"/>
</g>
<defs>
<clipPath id="clip0_1_16325">
<rect width="22.2222" height="16.8889" fill="white" transform="translate(0.555481 0.111084)"/>
</clipPath>
</defs>
</svg>
